<?xml version="1.0" encoding="UTF-8"?>
<!-- Created with Inkscape (http://www.inkscape.org/) -->
<svg width="217.46" height="210" version="1.1" viewBox="0 0 57.538 55.563" xmlns="http://www.w3.org/2000/svg" xmlns:cc="http://creativecommons.org/ns#" xmlns:dc="http://purl.org/dc/elements/1.1/" xmlns:rdf="http://www.w3.org/1999/02/22-rdf-syntax-ns#">
 <title>epgd logo</title>
 <defs>
  <radialGradient id="radialGradient14614" cx="28.769" cy="27.781" r="28.769" gradientTransform="matrix(1.4147 0 0 1.2853 -11.931 -7.925)" gradientUnits="userSpaceOnUse">
   <stop stop-color="#0f0" offset="0"/>
   <stop stop-color="#0f0" stop-opacity="0" offset="1"/>
  </radialGradient>
 </defs>
 <g transform="matrix(.80957 0 0 .80957 4.4055 6.1837)" opacity=".75">
  <g fill="#f80">
   <path d="m2.8811 20.67v2.2499h9.8081v-2.2499zm0 5.6248v2.3342h8.6773v-2.3342zm0 5.7091v2.2499h9.8081v-2.2499z" fill-rule="evenodd" stop-color="#000000" stroke-width="1.0583" style="-inkscape-stroke:none;font-variation-settings:normal"/>
   <path d="m15.766 20.67v2.2499h6.0186c1.38 0 2.4911 1.1111 2.4911 2.4911s-1.1112 2.4906-2.4911 2.4906h-6.0186v6.3522h2.2499v-4.1023h3.7687c2.6264 0 4.7411-2.1141 4.7411-4.7405s-2.1147-4.7411-4.7411-4.7411z" fill-rule="evenodd" stop-color="#000000" stroke-width="1.0473"/>
   <path d="m35.461 20.442a7.021 7.021 0 0 0-3.4012 0.95324 7.021 7.021 0 0 0-3.0561 8.4851 7.021 7.021 0 0 0 7.8195 4.4939 7.021 7.021 0 0 0 4.7668-3.259v-3.6538h-2.2499v2.9549a4.7711 4.7711 0 0 1-2.9106 1.743 4.7711 4.7711 0 0 1-5.3137-3.0539 4.7711 4.7711 0 0 1 2.0766-5.7659 4.7711 4.7711 0 0 1 2.4206-0.64917 4.7711 4.7711 0 0 1 3.6199 1.685l1.7162-1.4553a7.021 7.021 0 0 0-4.9784-2.4692 7.021 7.021 0 0 0-0.5097-0.0088z"/>
  </g>
  <path d="m50.819 20.67c-3.7627 0-6.7919 3.0292-6.7919 6.7919s3.0292 6.7919 6.7919 6.7919h5.3733v-13.584h-2.2499zm0 2.2499h3.1233v9.084h-3.1233c-2.5163 0-4.542-2.0257-4.542-4.542s2.0257-4.542 4.542-4.542z" fill="#00f" fill-rule="evenodd" stop-color="#000000" stroke-width="1.0583" style="-inkscape-stroke:none;font-variation-settings:normal"/>
 </g>
 <path d="m45.992 0-45.992 5.7723 1.804 14.383 2.8903-0.36277-1.4413-11.488 40.21-5.0478 1.4402 11.489 2.8913-0.36277zm9.7426 35.408-2.8903 0.36277 1.4407 11.488-21.644 2.7171c0.14233 0.06734 0.29711 0.16376 0.3762 0.22479 0.21929 0.16922 0.35168 0.44022 0.39843 0.81287 0.04539 0.36196 0.0186 0.68651-0.08113 0.97307-0.09973 0.28655-0.26854 0.5185-0.5054 0.69608-0.18293 0.13715-0.39829 0.23352-0.64544 0.29042l2.1249-0.26665c-0.07747-0.02447-0.14743-0.06631-0.20981-0.12609-0.12661-0.1225-0.20534-0.30666-0.23616-0.55242-0.03384-0.2698-0.01979-0.52799 0.04289-0.77463 0.06402-0.2468 0.16884-0.44846 0.31471-0.60513 0.1457-0.15801 0.3166-0.24892 0.5116-0.27337 0.12956-0.01625 0.24451-1.06e-4 0.34572 0.04961 0.10103 0.04838 0.185 0.12752 0.25166 0.2372l0.02066-0.0026 0.08423-0.33176 0.3607-0.04548-0.1943 2.2624 1.2247-0.15348c-0.11165-0.02363-0.21058-0.06853-0.29662-0.13539-0.16551-0.12984-0.26535-0.32745-0.29869-0.59325-0.03318-0.26446-0.01236-0.51659 0.06201-0.75654 0.07554-0.24146 0.19377-0.43555 0.3545-0.58187 0.16206-0.14649 0.35249-0.23351 0.57154-0.26097 0.05377-0.0068 0.10497-0.0099 0.15348-0.0098 0.14554 2.64e-4 0.26754 0.03107 0.36587 0.09302 0.13228 0.08109 0.20975 0.21097 0.23203 0.38861 0.03048 0.24309-0.05723 0.44682-0.26303 0.61236-0.20464 0.16404-0.51259 0.2719-0.92398 0.3235l-0.0863 0.01085 0.0036 0.06304 0.0072 0.05788c0.0186 0.14826 0.07071 0.25958 0.15606 0.33435 0.08668 0.07462 0.2049 0.10246 0.3545 0.08372 0.09617-0.01206 0.18999-0.03663 0.28164-0.0739s0.19854-0.0944 0.3204-0.17208l0.04702 0.37465c-0.10268 0.06359-0.19851 0.1106-0.2899 0.14728l0.81494-0.10232 0.19379-2.2619 0.36845-0.04651 0.0093 0.41599 0.0186-0.0021c0.15999-0.32531 0.37606-0.50534 0.64854-0.5395 0.29385-0.03685 0.48315 0.09903 0.56792 0.40721l0.01603-0.0016c0.08074-0.1675 0.17962-0.29906 0.29662-0.39377 0.11817-0.09622 0.24638-0.15276 0.38396-0.17002 0.0444-0.0054 0.08621-0.0078 0.12609-0.0062 0.11962 0.0046 0.21887 0.04108 0.29766 0.10956 0.10622 0.08978 0.17103 0.22776 0.1943 0.41341 0.0108 0.08548 0.01082 0.20798 0.0011 0.36794l-0.11524 1.3302 1.2464-0.15658c-0.11704-0.02376-0.22185-0.07062-0.31368-0.14263-0.17019-0.13467-0.27189-0.33322-0.30489-0.59634-0.03333-0.2658-0.01638-0.5157 0.05064-0.74931 0.06836-0.23378 0.18056-0.42292 0.33745-0.56741 0.15672-0.14582 0.3484-0.23318 0.57412-0.26148 0.04884-0.0062 0.09606-0.0091 0.1416-0.0093 0.19728-7.94e-4 0.36351 0.05445 0.49868 0.16536 0.16635 0.13651 0.26622 0.33851 0.29972 0.60565 0.03383 0.2698 0.01595 0.52156-0.05374 0.75551-0.06987 0.23261-0.18346 0.41883-0.33951 0.55914-0.07359 0.06595-0.15479 0.11878-0.2434 0.15968l1.0955-0.13746 0.1943-2.2614 0.36845-0.04651 0.0093 0.41599 0.0186-0.0021c0.0911-0.17151 0.19054-0.29998 0.29921-0.38551 0.10849-0.08687 0.23191-0.13881 0.36949-0.15606 0.04475-0.0056 0.08667-8e-3 0.12712-0.0067h5.29e-4c0.12134 0.0041 0.22325 0.04001 0.30592 0.10697 0.11157 0.08912 0.17911 0.22642 0.20257 0.41341 0.01154 0.09216 0.01148 0.215-5.29e-4 0.36845l-0.10955 1.3291 11.365-1.4263zm-43.1 5.4095-2.8918 0.36225 1.804 14.383 3.1781-0.39894-0.65061-2.8577-0.0031-0.02532zm32.953 8.5902c-0.01921-2.65e-4 -0.03944 2.64e-4 -0.06098 0.0031-0.09617 0.01206-0.1858 0.06201-0.26975 0.14986-0.08395 0.08786-0.15466 0.20914-0.21136 0.36277-0.05687 0.15229-0.09236 0.32164-0.10697 0.50798l-0.07803 0.95033 0.83974-0.10542 0.11472-1.3679c0.0089-0.12323 0.0099-0.2124 0.0031-0.26717-0.01921-0.1531-0.0961-0.23097-0.23048-0.23358zm-2.528 0.32246v5.29e-4c-0.01447 5.29e-4 -0.02873 0.0016-0.04393 0.0036-0.12422 0.01558-0.22999 0.07747-0.31678 0.18604-0.08561 0.10706-0.14567 0.24639-0.17984 0.41754-0.03299 0.16965-0.03774 0.34713-0.01447 0.53278 0.0186 0.14826 0.06575 0.25756 0.14108 0.32815 0.07667 0.07042 0.17998 0.0979 0.30954 0.08165 0.12021-0.01508 0.22218-0.07437 0.30696-0.17725 0.08477-0.10289 0.14426-0.23859 0.17725-0.40824 0.0328-0.17098 0.03652-0.35505 0.01188-0.55139-0.01791-0.14292-0.06455-0.25053-0.14004-0.32246-0.06621-0.06411-0.15033-0.09455-0.25166-0.09095zm-2.2278 0.27388c-0.01799-5.29e-4 -0.03716 5.29e-4 -0.05736 0.0031-0.14425 0.0181-0.26884 0.11784-0.37362 0.29921-0.10344 0.1812-0.16656 0.41197-0.18965 0.69298l-0.08061 0.97617 0.79737-0.10025 0.11679-1.3689c0.0094-0.13007 0.01095-0.22055 0.0047-0.2713-0.01892-0.15076-0.09152-0.22767-0.21756-0.23099zm-9.4279 0.12661-2.1859 0.2744c0.10682 0.01434 0.21566 0.03997 0.32608 0.07648l-0.12971 0.42943c-0.24681-0.08578-0.4772-0.11517-0.69092-0.08837-0.21103 0.02647-0.39484 0.1111-0.5519 0.25425-0.15723 0.14182-0.27214 0.33097-0.34416 0.56792-0.07088 0.23544-0.08911 0.49048-0.05478 0.76429 0.03065 0.24442 0.11343 0.42162 0.24805 0.53227s0.31167 0.152 0.53072 0.12454c0.14559-0.01826 0.28614-0.05806 0.4222-0.11989l0.06718-0.76326-0.55449 0.06976 0.03411-0.42168 1.0263-0.12868-0.13022 1.5141c-0.12188 0.06158-0.24253 0.10977-0.36225 0.14934l2.1012-0.26355zm8.1618 0.03204c-0.01744-7.94e-4 -0.03576 5.29e-4 -0.0553 0.0031-0.14692 0.01842-0.27244 0.12004-0.37672 0.30541-0.10294 0.1852-0.16695 0.42274-0.19172 0.7121l-0.07751 0.95085 0.7953-0.09974 0.11679-1.3689c0.0089-0.11237 0.0095-0.19879 0.0021-0.2589-0.01979-0.15778-0.09081-0.2392-0.21291-0.24391zm-7.2647 0.25167c-0.05044-0.0019-0.10411 7.94e-4 -0.1602 0.0078l-0.29197 0.03669-0.18862 2.1828 0.27027-0.03359c0.23641-0.02965 0.43599-0.11314 0.5979-0.25011 0.1619-0.13698 0.27628-0.31528 0.34365-0.53537 0.0687-0.22026 0.08673-0.46409 0.05323-0.73122-0.03082-0.24576-0.1134-0.4255-0.24701-0.53898-0.10034-0.08611-0.22594-0.13238-0.37724-0.13798zm4.994 0.0083c-0.01876-1e-4 -0.03891 0.0011-0.05994 0.0036-0.12822 0.01609-0.24143 0.08846-0.34055 0.21756-0.09779 0.12894-0.15971 0.29072-0.18552 0.48524l0.05788-0.0067c0.25111-0.03149 0.44297-0.09181 0.57568-0.18035 0.13253-0.08988 0.19056-0.20035 0.17415-0.33125-0.0085-0.06811-0.03628-0.11782-0.08372-0.14986-0.0357-0.02503-0.08172-0.03797-0.13798-0.03824zm-9.0708 0.10749-2.0913 0.26252c0.17541 0.0083 0.32247 0.04919 0.4377 0.12661 0.17168 0.11414 0.27397 0.30493 0.30747 0.57206 0.04154 0.33124-0.03965 0.60004-0.24443 0.80615-0.20345 0.20595-0.50738 0.33424-0.91209 0.38499l-0.22066 0.02739-0.09198 1.1131 2.7115-0.34003c-0.17158-0.02651-0.3214-0.0888-0.44804-0.18862-0.21679-0.17089-0.3475-0.43403-0.39222-0.79065-0.04422-0.35262-0.01635-0.68414 0.0832-0.99374 0.10089-0.30976 0.26607-0.56102 0.49558-0.75396 0.11142-0.09321 0.23335-0.1683 0.36535-0.22582zm6.6611 0.21704c-0.01222 5.29e-4 -0.0245 0.0016-0.03721 0.0031-0.11353 0.01423-0.21348 0.0789-0.30076 0.1943-0.08727 0.11541-0.15028 0.26596-0.1881 0.45114-0.03799 0.18385-0.04496 0.37051-0.02119 0.56017 0.01709 0.13624 0.05637 0.2352 0.11834 0.29662 0.06314 0.05993 0.14259 0.08335 0.23875 0.07131 0.10952-0.01373 0.21072-0.07874 0.30334-0.19482 0.09245-0.11741 0.16192-0.26689 0.20826-0.44907s0.0563-0.37618 0.03049-0.58188c-0.01474-0.11754-0.05753-0.20735-0.12919-0.27027-0.06284-0.05621-0.13716-0.08332-0.22272-0.08061zm-9.7023 0.16485-0.60358 0.07545-0.03204 0.39688-1.0806 0.13591-0.06873 0.81236 1.0056-0.12609-0.03101 0.41703-1.0098 0.12661-0.07751 0.93793 1.0795-0.13591-0.03359 0.40618 0.60255-0.07545zm0.83974 0.2496c-0.02033 0.0024-0.03573 0.01389-0.04237 0.03979-0.0089 0.03459-0.07432 0.0028-0.11472 0.0078l-0.23771 0.02997-0.09147 1.0573 0.18862-0.02379c0.23775-0.02981 0.41439-0.10561 0.53072-0.22738 0.1175-0.12327 0.16398-0.28197 0.13953-0.47698-0.01826-0.14559-0.07095-0.24696-0.15813-0.30386-0.04829-0.03211-0.15345-0.10968-0.21446-0.10284zm-2.9978 0.02119-2.5911 0.32505c-0.0097 0.17746 0.36958 0.02816 0.49764 0.10645 0.17469 0.10562 0.27826 0.28908 0.31109 0.55087 0.02764 0.22038-0.0073 0.41401-0.10439 0.58084-0.09594 0.16533-0.25367 0.29775-0.47336 0.39584l0.65216 1.1948 1.4588-0.18293zm-3.482 0.43718-1.7353 0.21756c0.23577 0.0093 0.4354 0.07249 0.59531 0.19586 0.21929 0.16922 0.35272 0.4397 0.39946 0.81235 0.04539 0.36196 0.01808 0.686-0.08165 0.97255s-0.26802 0.51902-0.50488 0.6966c-0.18655 0.13987-0.40708 0.23762-0.66042 0.29404l1.7389-0.21859zm0.79685 0.29197c-0.03646 7.94e-4 -0.0759 0.0042-0.11731 0.0093l-0.23823 0.02946-0.08062 0.98288 0.24701-0.03101c0.22706-0.02848 0.39026-0.0997 0.48989-0.21394 0.09964-0.11424 0.13821-0.25859 0.11627-0.43356-0.01759-0.14024-0.06955-0.23679-0.15606-0.28836-0.06488-0.03869-0.15158-0.05688-0.26096-0.05478zm-3.5497 0.05323-0.39222 0.04961-1.1498 3.0835 1.2929-0.16226zm-0.90124 0.11317-1.3472 0.1695 0.37052 1.7699c0.02928 0.13606 0.05566 0.29076 0.0801 0.46405l0.01705 0.15244 0.0083-0.0011c0.06368-0.24947 0.12883-0.46752 0.19637-0.65371zm19.344 0.1664-0.01188 0.0016c-0.11336 0.18336-0.24215 0.31419-0.38654 0.39377l0.40049-0.05013zm-17.545 0.0026c-0.05043-0.0019-0.10359 7.94e-4 -0.15968 0.0078l-0.29249 0.03669-0.1881 2.1828 0.27027-0.03411c0.23641-0.02964 0.43548-0.11314 0.59738-0.25011 0.1619-0.13698 0.27629-0.3158 0.34365-0.53588 0.0687-0.22025 0.08621-0.46409 0.05271-0.73122-0.03082-0.24576-0.11236-0.42499-0.24598-0.53847-0.10034-0.08611-0.22645-0.13186-0.37776-0.13746zm2.5533 1.047-0.37259 0.04651-0.0987 1.1901 1.0273-0.12919z" color="#000000" fill="url(#radialGradient14614)" fill-rule="evenodd" stroke-width="2.2426" style="-inkscape-stroke:none;paint-order:stroke fill markers"/>
 <metadata>
  <rdf:RDF>
   <cc:Work rdf:about="">
    <cc:license rdf:resource="http://creativecommons.org/licenses/by-nc-sa/4.0/"/>
    <dc:title>epgd logo</dc:title>
   </cc:Work>
   <cc:License rdf:about="http://creativecommons.org/licenses/by-nc-sa/4.0/">
    <cc:permits rdf:resource="http://creativecommons.org/ns#Reproduction"/>
    <cc:permits rdf:resource="http://creativecommons.org/ns#Distribution"/>
    <cc:requires rdf:resource="http://creativecommons.org/ns#Notice"/>
    <cc:requires rdf:resource="http://creativecommons.org/ns#Attribution"/>
    <cc:prohibits rdf:resource="http://creativecommons.org/ns#CommercialUse"/>
    <cc:permits rdf:resource="http://creativecommons.org/ns#DerivativeWorks"/>
    <cc:requires rdf:resource="http://creativecommons.org/ns#ShareAlike"/>
   </cc:License>
  </rdf:RDF>
 </metadata>
</svg>
